<svg width="54" height="54" viewBox="0 0 54 54" fill="none" xmlns="http://www.w3.org/2000/svg">
<path d="M3 27C3 33.3652 5.52856 39.4697 10.0294 43.9706C14.5303 48.4714 20.6348 51 27 51C33.3652 51 39.4697 48.4714 43.9706 43.9706C48.4714 39.4697 51 33.3652 51 27C51 20.6348 48.4714 14.5303 43.9706 10.0294C39.4697 5.52856 33.3652 3 27 3C20.6348 3 14.5303 5.52856 10.0294 10.0294C5.52856 14.5303 3 20.6348 3 27ZM25.5 34.5C25.5 33.675 26.175 33 27 33C31.2188 33 35.025 34.9219 37.8469 37.9781C38.4094 38.5875 38.3719 39.5344 37.7625 40.0969C37.1531 40.6594 36.2063 40.6219 35.6438 40.0125C33.3 37.4719 30.2625 35.9906 26.9906 35.9906C26.1656 35.9906 25.4906 35.3156 25.4906 34.4906L25.5 34.5ZM18 42C15.5156 42 13.5 40.0312 13.5 37.5938C13.5 35.7188 16.1813 31.9312 17.4 30.3094C17.7 29.8969 18.3 29.8969 18.6 30.3094C19.8375 31.9312 22.5 35.7188 22.5 37.5938C22.5 40.0312 20.4844 42 18 42ZM37.4625 22.5C37.4625 23.2956 37.1464 24.0587 36.5838 24.6213C36.0212 25.1839 35.2581 25.5 34.4625 25.5C33.6669 25.5 32.9038 25.1839 32.3412 24.6213C31.7786 24.0587 31.4625 23.2956 31.4625 22.5C31.4625 21.7044 31.7786 20.9413 32.3412 20.3787C32.9038 19.8161 33.6669 19.5 34.4625 19.5C35.2581 19.5 36.0212 19.8161 36.5838 20.3787C37.1464 20.9413 37.4625 21.7044 37.4625 22.5ZM19.4625 19.5C20.2582 19.5 21.0212 19.8161 21.5838 20.3787C22.1464 20.9413 22.4625 21.7044 22.4625 22.5C22.4625 23.2956 22.1464 24.0587 21.5838 24.6213C21.0212 25.1839 20.2582 25.5 19.4625 25.5C18.6669 25.5 17.9038 25.1839 17.3412 24.6213C16.7786 24.0587 16.4625 23.2956 16.4625 22.5C16.4625 21.7044 16.7786 20.9413 17.3412 20.3787C17.9038 19.8161 18.6669 19.5 19.4625 19.5Z" fill="white" fill-opacity="0.87"/>
</svg>
