<svg width="50" height="44" viewBox="0 0 50 44" fill="none" xmlns="http://www.w3.org/2000/svg">
<path d="M0.90918 13.8887L4.09068 17.0702C5.22468 15.9362 6.45768 14.9327 7.74018 14.0124L4.52493 10.7972C3.26493 11.7467 2.04093 12.7547 0.90918 13.8887ZM12.5664 6.38493L6.34068 0.15918L3.15918 3.34068L43.6592 43.8407L46.8407 40.6592L35.5637 29.3822L37.7597 27.1884C35.2401 24.6884 32.0265 23.0044 28.5369 22.3554L23.4114 17.2299C29.6867 16.8002 36.1217 18.9129 40.8017 23.5907L43.9832 20.4092C37.4627 13.8864 28.0959 11.5532 19.4852 13.3037L16.0539 9.87243C18.9496 8.96626 21.9658 8.50352 24.9999 8.49993C32.9582 8.49993 40.3832 11.5442 45.9092 17.0702L49.0907 13.8887C42.7164 7.51218 34.1597 3.99993 24.9999 3.99993C20.7431 4.0141 16.5264 4.82296 12.5664 6.38493ZM6.01668 20.4092L9.19818 23.5907C10.5772 22.2238 12.1348 21.0499 13.8287 20.1009L10.5459 16.8182C8.93268 17.8329 7.40718 19.0209 6.01668 20.4092ZM12.2402 27.1907L15.4217 30.3722C16.9787 28.8152 18.8754 27.7824 20.8869 27.1592L17.3837 23.6559C15.4708 24.5157 13.7285 25.7131 12.2402 27.1907ZM29.4752 35.7474L24.7502 31.0224C23.8837 31.0689 23.0492 31.3654 22.3476 31.8761C21.646 32.3868 21.1074 33.0898 20.7969 33.9001C20.4865 34.7104 20.4174 35.5933 20.598 36.442C20.7787 37.2908 21.2014 38.069 21.815 38.6826C22.4286 39.2962 23.2068 39.7189 24.0556 39.8996C24.9043 40.0802 25.7872 40.0112 26.5975 39.7007C27.4078 39.3902 28.1108 38.8516 28.6215 38.15C29.1322 37.4484 29.4287 36.6139 29.4752 35.7474Z" fill="white" fill-opacity="0.87"/>
</svg>
